<svg id="Camada_1" data-name="Camada 1" xmlns="http://www.w3.org/2000/svg" viewBox="0 0 300 70.97"><defs><style>.cls-1{fill:#fff;}.cls-2{fill:#0089a2;}.cls-3{fill:#f80;}</style></defs><title>Logo-QueBarato</title><path class="cls-1" d="M297.09,1.2H280.2a3.58,3.58,0,0,0-3.35,2.53l-4.12,13.81c-2.69-3.16-7.14-4.74-13.29-4.74a30.91,30.91,0,0,0-7.25.83,22.46,22.46,0,0,0-2.49.76,1.52,1.52,0,0,0-1.17-.53h-.88a1.55,1.55,0,0,1-1.49-2.06l2-6.54a1.56,1.56,0,0,0-1.49-2.06H227.85a1.93,1.93,0,0,0-1.79,1.35l-2.39,8a1.91,1.91,0,0,1-1.78,1.35h-1.43a1.84,1.84,0,0,0-1.3.55,18.48,18.48,0,0,0-2.48-.82,32.91,32.91,0,0,0-7.81-.79,31.28,31.28,0,0,0-7.49.87c-.27.06-.54.13-.8.21l.33-1.08h-7a16.47,16.47,0,0,0-5.9,1.06H170.75l-.4,1.33a15.47,15.47,0,0,0-4-1.6,32.88,32.88,0,0,0-7.82-.79,31,31,0,0,0-7.46.87,21.11,21.11,0,0,0-3.82,1.26A13.24,13.24,0,0,0,147,12a12,12,0,0,0-3.75-6.79,14.86,14.86,0,0,0-6.72-3.3,34.72,34.72,0,0,0-7.25-.72H111.73a3.08,3.08,0,0,0-2.9,2.19L105.2,15.5a15.84,15.84,0,0,0-5.09-2,31.51,31.51,0,0,0-13.63.17,22.4,22.4,0,0,0-3.86,1.28l.32-1.05H51.77a13.84,13.84,0,0,0-2.6-8C46.28,2,41.27,0,34.32,0A27.74,27.74,0,0,0,17.64,5,26.85,26.85,0,0,0,7.83,19.46L1.73,39.72A37.19,37.19,0,0,0,0,48.63,14.65,14.65,0,0,0,1.9,57a12.89,12.89,0,0,0,6.46,5.31A24.54,24.54,0,0,0,17.6,63.8c.55,0,1.09,0,1.58,0l.23,0,2.87,4.89A5.1,5.1,0,0,0,29.65,70L39,63.61a5.53,5.53,0,0,0,.88-.72,18,18,0,0,0,6,.91,13.32,13.32,0,0,0,4.71-.89c.23-.1.49-.19.73-.31H68.31l.62-2a14.11,14.11,0,0,0,3.9,2H89.07a23.72,23.72,0,0,0,3.23-1.25,2.51,2.51,0,0,0,2.21,1.25h39.91a14.86,14.86,0,0,0,6.2,1.2,18.56,18.56,0,0,0,6.77-1.2h31L179.8,58a4.22,4.22,0,0,0,.36.66c1.47,2.35,4.54,5.16,10.78,5.16a18.64,18.64,0,0,0,6.77-1.2H218l0-.66a15.38,15.38,0,0,0,6.39,1.2c1.31,0,2.67-.06,4-.19s2.54-.29,3.83-.48l2.76-.42a1.79,1.79,0,0,0,1.1-.61A14.6,14.6,0,0,0,240,63a27.19,27.19,0,0,0,6.58.76,26.7,26.7,0,0,0,13.63-3.48,1.77,1.77,0,0,0,.32-.21,2.86,2.86,0,0,0,2.91,2.49h16.41a3.55,3.55,0,0,0,3.35-2.53l6-20.3H287l7.92-18.2c0-.13.09-.24.12-.38l4.86-16.14A2.89,2.89,0,0,0,297.09,1.2ZM190.05,52a3.31,3.31,0,0,1,0-2.27,7.66,7.66,0,0,0,.93,2.57A1.78,1.78,0,0,1,190.05,52Zm33.67-.48a6.05,6.05,0,0,1,.23-1.18,7.28,7.28,0,0,0,.46,1.32A3.42,3.42,0,0,1,223.72,51.54Z"/><path class="cls-1" d="M72.83,62.6a10.66,10.66,0,0,0,1.46.44A26.94,26.94,0,0,0,81,63.8a28.26,28.26,0,0,0,8.1-1.2Z"/><path class="cls-1" d="M72.83,62.6H68.31l.62-2A14.11,14.11,0,0,0,72.83,62.6Z"/><path class="cls-1" d="M94.51,62.6H89.07a23.72,23.72,0,0,0,3.23-1.25A2.51,2.51,0,0,0,94.51,62.6Z"/><path class="cls-2" d="M39,41a40.26,40.26,0,0,1-2.85,7.09,19,19,0,0,1-4.09,5.3l3.68,5.86-8.64,5.87-4.35-7.4a6.06,6.06,0,0,1-1.12.17c-.38,0-.75,0-1.11.1s-.74.08-1.14.1-.82,0-1.27,0A19.53,19.53,0,0,1,10.9,57a7.91,7.91,0,0,1-4-3.23A9.34,9.34,0,0,1,5.76,48.4,30.11,30.11,0,0,1,7.21,41l6.11-20.33a20.43,20.43,0,0,1,7.43-11.1A21.65,21.65,0,0,1,33.81,5.71q7.8,0,10.63,3.83t.66,11.1ZM18.65,42c-.2.75-.38,1.54-.54,2.36a8,8,0,0,0-.14,2.3,3,3,0,0,0,.75,1.77,2.65,2.65,0,0,0,2,.7,4.23,4.23,0,0,0,2.42-.7A7.16,7.16,0,0,0,25,46.63a10,10,0,0,0,1.23-2.3A22.39,22.39,0,0,0,27,42l6.19-20.53c.2-.76.39-1.53.57-2.33a6.38,6.38,0,0,0,.16-2.17,2.62,2.62,0,0,0-.76-1.6A3,3,0,0,0,31,14.71a4.52,4.52,0,0,0-2.42.63,6.32,6.32,0,0,0-1.74,1.6,10.15,10.15,0,0,0-1.22,2.17,17,17,0,0,0-.81,2.33Z"/><path class="cls-2" d="M54.33,56.89l1.33-4.6h-.13a11.89,11.89,0,0,1-1.75,2.1,17.53,17.53,0,0,1-2.26,1.87A11.74,11.74,0,0,1,49,57.59a7,7,0,0,1-2.57.5c-3.07,0-5.21-.67-6.42-2s-1.45-3.3-.69-5.83l9.21-30.66h10.6L51.06,46.3A6,6,0,0,0,51,48.56c.12.67.69,1,1.73.87a4.13,4.13,0,0,0,4-3.13l8.07-26.73h10.6L64.19,56.89Z"/><path class="cls-2" d="M83.13,40l-1.9,6.53a4.13,4.13,0,0,0-.07,2.66c.27.76,1,1.18,2.12,1.27a4.13,4.13,0,0,0,2.38-.5,4.67,4.67,0,0,0,1.5-1.5,10.72,10.72,0,0,0,1-2.1q.4-1.17.84-2.37H99.51q-1.77,7.2-6.5,10.63a19.51,19.51,0,0,1-11.6,3.5,21.88,21.88,0,0,1-5.28-.6,9.46,9.46,0,0,1-4-2,6.32,6.32,0,0,1-2-3.6,10.72,10.72,0,0,1,.54-5.43l4.53-15.2a19.7,19.7,0,0,1,2.93-6,15.7,15.7,0,0,1,4.14-3.93,16.29,16.29,0,0,1,5.12-2.16,25.09,25.09,0,0,1,5.92-.67,24.22,24.22,0,0,1,5.15.53,10,10,0,0,1,4,1.8,6.17,6.17,0,0,1,2.18,3.33,9.47,9.47,0,0,1-.38,5.13L101.06,40Zm9.48-7,1-3.67a3.57,3.57,0,0,0,.2-1.13,3,3,0,0,0-.22-1.27,2.32,2.32,0,0,0-.82-1,2.68,2.68,0,0,0-1.56-.4A4.16,4.16,0,0,0,87.79,27,10.32,10.32,0,0,0,86,30.5L85.28,33Z"/><path class="cls-3" d="M98.64,56.89l15-50h15.2a28,28,0,0,1,6,.6,9.45,9.45,0,0,1,4.38,2.1,7,7,0,0,1,2.16,4,13.57,13.57,0,0,1-.65,6.26A18.72,18.72,0,0,1,137.57,26a15.41,15.41,0,0,1-5.68,4.4l0,.13a12.58,12.58,0,0,1,2.57,2.27,5.73,5.73,0,0,1,1.22,2.5,9.14,9.14,0,0,1,0,3.1,29.55,29.55,0,0,1-.92,4.06q-2.32,7.6-7.39,11a21.24,21.24,0,0,1-12.2,3.43Zm14.39-9c1.47,0,2.74-.09,3.81-.14a6.94,6.94,0,0,0,2.78-.63,5.29,5.29,0,0,0,2.07-1.87,14.31,14.31,0,0,0,1.63-3.83,6.91,6.91,0,0,0,.39-3.33,2.63,2.63,0,0,0-1.18-1.7,5.25,5.25,0,0,0-2.41-.67c-1-.06-2.11-.12-3.35-.16Zm6.39-21.33,3.39-.23a6.87,6.87,0,0,0,2.52-.63,5.27,5.27,0,0,0,1.91-1.7,11.54,11.54,0,0,0,1.5-3.37,5.08,5.08,0,0,0,.25-2.83,2.31,2.31,0,0,0-1.21-1.4,5.61,5.61,0,0,0-2.26-.47c-.91,0-1.88,0-2.9,0Z"/><path class="cls-3" d="M151.58,53.56a26.89,26.89,0,0,1-5,3.37,12.21,12.21,0,0,1-5.47,1.16q-4.59,0-6.32-2.76t-.4-7.23a20.13,20.13,0,0,1,2.37-5.37,15.48,15.48,0,0,1,3.14-3.56,16.19,16.19,0,0,1,3.67-2.27,34.47,34.47,0,0,1,3.86-1.46c1.27-.41,2.5-.75,3.68-1a24,24,0,0,0,3.26-1,9.06,9.06,0,0,0,2.53-1.5,5,5,0,0,0,1.51-2.43,3.77,3.77,0,0,0-.06-2.7,2.1,2.1,0,0,0-2.13-1.17,5.17,5.17,0,0,0-2.37.47,4.73,4.73,0,0,0-1.55,1.26,7,7,0,0,0-1,1.84c-.26.69-.54,1.43-.83,2.23h-10.6a18,18,0,0,1,2.62-6,14.61,14.61,0,0,1,4.18-3.93,17.23,17.23,0,0,1,5.3-2.23,25.54,25.54,0,0,1,6.09-.7,27.53,27.53,0,0,1,6.47.63,7.66,7.66,0,0,1,3.83,2,5.43,5.43,0,0,1,1.39,3.53,15.83,15.83,0,0,1-.83,5.23l-6.86,22.86a7.19,7.19,0,0,0-.39,2.1c0,.69,0,1.37,0,2H151.36Zm4-14.79c-1.21.57-2.33,1-3.36,1.43a15.61,15.61,0,0,0-2.75,1.3,13.11,13.11,0,0,0-2.29,1.8,6.85,6.85,0,0,0-1.66,3,3.61,3.61,0,0,0,.18,2.86,2.77,2.77,0,0,0,2.61,1.14,3.94,3.94,0,0,0,2-.54,5.43,5.43,0,0,0,1.59-1.4,10.28,10.28,0,0,0,1.16-1.83,12.41,12.41,0,0,0,.77-1.9Z"/><path class="cls-3" d="M184.74,19.57,183,25.24h.13a16.52,16.52,0,0,1,4.33-4.87,9.72,9.72,0,0,1,5.93-1.86l-3.59,12c-.52-.08-1-.15-1.54-.2s-1-.06-1.56-.06a6.86,6.86,0,0,0-3.46.7,5.53,5.53,0,0,0-2.06,3l-6.88,23h-10.6l11.2-37.32Z"/><path class="cls-3" d="M201.89,53.56a26.56,26.56,0,0,1-5,3.37,12.16,12.16,0,0,1-5.46,1.16q-4.6,0-6.33-2.76t-.4-7.23a20.13,20.13,0,0,1,2.37-5.37,15.51,15.51,0,0,1,3.15-3.56,16.13,16.13,0,0,1,3.66-2.27,34.47,34.47,0,0,1,3.86-1.46c1.28-.41,2.51-.75,3.69-1a24.49,24.49,0,0,0,3.26-1,9,9,0,0,0,2.52-1.5,5.12,5.12,0,0,0,1.52-2.43,3.71,3.71,0,0,0-.07-2.7,2.09,2.09,0,0,0-2.13-1.17,5.2,5.2,0,0,0-2.37.47,4.7,4.7,0,0,0-1.54,1.26,6.73,6.73,0,0,0-1,1.84c-.26.69-.54,1.43-.83,2.23H190.18a17.62,17.62,0,0,1,2.62-6A14.36,14.36,0,0,1,197,21.44a17.07,17.07,0,0,1,5.29-2.23,25.66,25.66,0,0,1,6.09-.7,27.68,27.68,0,0,1,6.48.63,7.62,7.62,0,0,1,3.82,2,5.38,5.38,0,0,1,1.39,3.53,15.79,15.79,0,0,1-.82,5.23l-6.87,22.86a6.85,6.85,0,0,0-.38,2.1c0,.69,0,1.37,0,2H201.67Zm4-14.79c-1.2.57-2.32,1-3.36,1.43a15.5,15.5,0,0,0-2.74,1.3,13.11,13.11,0,0,0-2.29,1.8,6.75,6.75,0,0,0-1.66,3,3.53,3.53,0,0,0,.18,2.86,2.75,2.75,0,0,0,2.6,1.14,3.91,3.91,0,0,0,2-.54,5.43,5.43,0,0,0,1.59-1.4,10.28,10.28,0,0,0,1.16-1.83,11.48,11.48,0,0,0,.77-1.9Z"/><path class="cls-3" d="M220.86,27.24l2.33-7.67h4.2l3.2-10.66h10.6L238,19.57h5.06l-2.33,7.67h-5.07L229.73,46.9c-.31,1.06-.31,1.76,0,2.1a2.12,2.12,0,0,0,1.56.5,11.24,11.24,0,0,1,1.44-.14h1.37l-2.26,7.47c-1.17.17-2.33.32-3.5.43s-2.32.17-3.48.17q-4.4,0-6-2.17c-1.07-1.44-1.17-3.59-.3-6.43l6.49-21.59Z"/><path class="cls-3" d="M241.23,31.3a20.61,20.61,0,0,1,2.86-6,15.4,15.4,0,0,1,4-3.93,15.63,15.63,0,0,1,5-2.16,24.34,24.34,0,0,1,5.86-.67q7.06,0,9.48,3.2T269,31.3l-4.53,15.2q-2.28,6.33-6.78,9a20.58,20.58,0,0,1-10.56,2.63,21,21,0,0,1-5.21-.6,8.36,8.36,0,0,1-3.82-2,6.52,6.52,0,0,1-1.92-3.6,10.88,10.88,0,0,1,.57-5.39Zm5.87,15.86a3.68,3.68,0,0,0,.12,2.44c.31.55,1,.83,2.13.83A4,4,0,0,0,252,49.6a6.33,6.33,0,0,0,1.64-2.44l5-16.66a6,6,0,0,0,.17-3.06c-.21-.85-.94-1.27-2.19-1.27a3.65,3.65,0,0,0-2.94,1.27,7.8,7.8,0,0,0-1.57,3.06Z"/><path class="cls-3" d="M267,56.89l3.4-11.39H281.7l-3.39,11.39ZM278,19.51l3.77-12.6h11.73l-3.77,12.6-9.27,21.32h-6Z"/></svg>